<svg width="436" height="459" viewBox="0 0 436 459" fill="none" xmlns="http://www.w3.org/2000/svg">
<mask id="path-1-outside-1_1044_4" maskUnits="userSpaceOnUse" x="39" y="81" width="384" height="258" fill="black">
<rect fill="white" x="39" y="81" width="384" height="258"/>
<path d="M44.9 297.75L72.9 271.15C77.1 278.15 82.9333 284.217 90.4 289.35C98.1 294.483 107.083 297.05 117.35 297.05C131.35 297.05 142.317 292.617 150.25 283.75C158.183 274.883 162.15 261.117 162.15 242.45V89.5H203.45V247.35C203.45 266.25 199.6 282.233 191.9 295.3C184.433 308.133 174.283 317.933 161.45 324.7C148.617 331.467 134.267 334.85 118.4 334.85C103.233 334.85 89.2333 331.467 76.4 324.7C63.5667 317.7 53.0667 308.717 44.9 297.75ZM100.9 122.75V89.5H187.7V122.75H100.9ZM231.543 300.55L253.593 268.35C263.86 277.683 275.526 285.033 288.593 290.4C301.893 295.533 315.776 298.1 330.243 298.1C340.043 298.1 348.21 296.817 354.743 294.25C361.51 291.45 366.526 287.95 369.793 283.75C373.293 279.317 375.043 274.533 375.043 269.4C375.043 264.267 373.526 259.367 370.493 254.7C367.46 250.033 361.976 245.483 354.043 241.05C346.343 236.617 335.376 232.067 321.143 227.4C301.543 220.633 286.026 213.633 274.593 206.4C263.16 198.933 254.876 190.767 249.743 181.9C244.843 173.033 242.393 163.467 242.393 153.2C242.393 140.833 245.776 129.633 252.543 119.6C259.543 109.333 269.46 101.167 282.293 95.1C295.126 88.8 310.293 85.65 327.793 85.65C342.26 85.65 356.96 88.3333 371.893 93.7C386.826 98.8333 399.776 105.833 410.743 114.7L389.393 146.9C380.526 138.967 370.493 132.783 359.293 128.35C348.326 123.683 336.776 121.35 324.643 121.35C310.876 121.35 300.61 124.15 293.843 129.75C287.076 135.35 283.693 141.883 283.693 149.35C283.693 154.017 285.093 158.45 287.893 162.65C290.926 166.617 296.176 170.583 303.643 174.55C311.11 178.517 321.376 182.717 334.443 187.15C354.976 193.683 371.31 201.033 383.443 209.2C395.576 217.133 404.326 225.767 409.693 235.1C415.293 244.433 418.093 254.583 418.093 265.55C418.093 277.917 414.593 289.467 407.593 300.2C400.593 310.7 390.326 319.1 376.793 325.4C363.26 331.7 346.46 334.85 326.393 334.85C314.96 334.85 303.526 333.45 292.093 330.65C280.66 327.617 269.693 323.533 259.193 318.4C248.926 313.267 239.71 307.317 231.543 300.55Z"/>
</mask>
<path d="M44.9 297.75L42.145 294.85L39.5728 297.294L41.6918 300.139L44.9 297.75ZM72.9 271.15L76.33 269.092L73.7627 264.813L70.145 268.25L72.9 271.15ZM90.4 289.35L88.1339 292.646L88.1574 292.662L88.1812 292.678L90.4 289.35ZM150.25 283.75L147.269 281.083L147.269 281.083L150.25 283.75ZM162.15 89.5V85.5H158.15V89.5H162.15ZM203.45 89.5H207.45V85.5H203.45V89.5ZM191.9 295.3L188.454 293.269L188.448 293.279L188.443 293.288L191.9 295.3ZM161.45 324.7L159.584 321.162L161.45 324.7ZM76.4 324.7L74.4846 328.212L74.5094 328.225L74.5344 328.238L76.4 324.7ZM100.9 122.75H96.9V126.75H100.9V122.75ZM100.9 89.5V85.5H96.9V89.5H100.9ZM187.7 89.5H191.7V85.5H187.7V89.5ZM187.7 122.75V126.75H191.7V122.75H187.7ZM47.655 300.65L75.655 274.05L70.145 268.25L42.145 294.85L47.655 300.65ZM69.47 273.208C73.9958 280.751 80.2473 287.224 88.1339 292.646L92.6661 286.054C85.6193 281.209 80.2042 275.549 76.33 269.092L69.47 273.208ZM88.1812 292.678C96.6092 298.297 106.383 301.05 117.35 301.05V293.05C107.783 293.05 99.5908 290.67 92.6188 286.022L88.1812 292.678ZM117.35 301.05C132.268 301.05 144.403 296.283 153.231 286.417L147.269 281.083C140.23 288.95 130.432 293.05 117.35 293.05V301.05ZM153.231 286.417C162.106 276.498 166.15 261.566 166.15 242.45H158.15C158.15 260.667 154.261 273.269 147.269 281.083L153.231 286.417ZM166.15 242.45V89.5H158.15V242.45H166.15ZM162.15 93.5H203.45V85.5H162.15V93.5ZM199.45 89.5V247.35H207.45V89.5H199.45ZM199.45 247.35C199.45 265.71 195.712 280.952 188.454 293.269L195.346 297.331C203.488 283.514 207.45 266.79 207.45 247.35H199.45ZM188.443 293.288C181.344 305.49 171.738 314.753 159.584 321.162L163.316 328.238C176.828 321.113 187.523 310.777 195.357 297.312L188.443 293.288ZM159.584 321.162C147.379 327.597 133.679 330.85 118.4 330.85V338.85C134.855 338.85 149.855 335.336 163.316 328.238L159.584 321.162ZM118.4 330.85C103.853 330.85 90.4975 327.611 78.2656 321.162L74.5344 328.238C87.9692 335.322 102.614 338.85 118.4 338.85V330.85ZM78.3154 321.188C65.9533 314.445 55.9065 305.833 48.1082 295.361L41.6918 300.139C50.2268 311.6 61.18 320.955 74.4846 328.212L78.3154 321.188ZM104.9 122.75V89.5H96.9V122.75H104.9ZM100.9 93.5H187.7V85.5H100.9V93.5ZM183.7 89.5V122.75H191.7V89.5H183.7ZM187.7 118.75H100.9V126.75H187.7V118.75ZM231.543 300.55L228.243 298.29L226.18 301.301L228.991 303.63L231.543 300.55ZM253.593 268.35L256.284 265.39L252.887 262.302L250.293 266.09L253.593 268.35ZM288.593 290.4L287.073 294.1L287.113 294.116L287.153 294.132L288.593 290.4ZM354.743 294.25L356.206 297.973L356.239 297.96L356.272 297.946L354.743 294.25ZM369.793 283.75L366.653 281.271L366.644 281.283L366.636 281.294L369.793 283.75ZM370.493 254.7L373.847 252.52L373.847 252.52L370.493 254.7ZM354.043 241.05L352.047 244.516L352.069 244.529L352.092 244.542L354.043 241.05ZM321.143 227.4L319.838 231.181L319.867 231.191L319.897 231.201L321.143 227.4ZM274.593 206.4L272.406 209.749L272.43 209.765L272.454 209.78L274.593 206.4ZM249.743 181.9L246.242 183.835L246.261 183.87L246.281 183.904L249.743 181.9ZM252.543 119.6L249.238 117.347L249.232 117.355L249.227 117.363L252.543 119.6ZM282.293 95.1L284.002 98.7163L284.029 98.7037L284.056 98.6907L282.293 95.1ZM371.893 93.7L370.54 97.4643L370.566 97.4737L370.593 97.4827L371.893 93.7ZM410.743 114.7L414.077 116.91L416.088 113.877L413.258 111.589L410.743 114.7ZM389.393 146.9L386.726 149.881L390.172 152.964L392.727 149.11L389.393 146.9ZM359.293 128.35L357.727 132.031L357.774 132.051L357.821 132.069L359.293 128.35ZM293.843 129.75L291.293 126.668L291.293 126.668L293.843 129.75ZM287.893 162.65L284.565 164.869L284.637 164.977L284.716 165.08L287.893 162.65ZM303.643 174.55L305.52 171.018L305.52 171.018L303.643 174.55ZM334.443 187.15L333.158 190.938L333.194 190.95L333.23 190.962L334.443 187.15ZM383.443 209.2L381.209 212.518L381.232 212.533L381.254 212.548L383.443 209.2ZM409.693 235.1L406.225 237.094L406.244 237.126L406.263 237.158L409.693 235.1ZM407.593 300.2L410.921 302.419L410.932 302.402L410.943 302.385L407.593 300.2ZM376.793 325.4L375.105 321.774L376.793 325.4ZM292.093 330.65L291.067 334.516L291.104 334.526L291.141 334.535L292.093 330.65ZM259.193 318.4L257.404 321.978L257.42 321.986L257.436 321.994L259.193 318.4ZM234.843 302.81L256.893 270.61L250.293 266.09L228.243 298.29L234.843 302.81ZM250.902 271.31C261.52 280.962 273.584 288.56 287.073 294.1L290.113 286.7C277.468 281.507 266.2 274.405 256.284 265.39L250.902 271.31ZM287.153 294.132C300.919 299.445 315.291 302.1 330.243 302.1V294.1C316.261 294.1 302.867 291.622 290.033 286.668L287.153 294.132ZM330.243 302.1C340.36 302.1 349.061 300.78 356.206 297.973L353.28 290.527C347.358 292.854 339.726 294.1 330.243 294.1V302.1ZM356.272 297.946C363.45 294.976 369.127 291.121 372.95 286.206L366.636 281.294C363.925 284.779 359.57 287.924 353.214 290.554L356.272 297.946ZM372.933 286.229C376.93 281.165 379.043 275.524 379.043 269.4H371.043C371.043 273.543 369.656 277.469 366.653 281.271L372.933 286.229ZM379.043 269.4C379.043 263.427 377.265 257.779 373.847 252.52L367.139 256.88C369.788 260.955 371.043 265.106 371.043 269.4H379.043ZM373.847 252.52C370.303 247.068 364.176 242.13 355.994 237.558L352.092 244.542C359.777 248.836 364.616 252.998 367.139 256.88L373.847 252.52ZM356.039 237.584C347.994 232.952 336.732 228.302 322.389 223.599L319.897 231.201C334.021 235.832 344.692 240.281 352.047 244.516L356.039 237.584ZM322.448 223.619C303.003 216.906 287.804 210.025 276.732 203.02L272.454 209.78C284.248 217.242 300.083 224.361 319.838 231.181L322.448 223.619ZM276.78 203.051C265.704 195.818 257.938 188.071 253.205 179.896L246.281 183.904C251.815 193.462 260.615 202.049 272.406 209.749L276.78 203.051ZM253.244 179.965C248.676 171.699 246.393 162.799 246.393 153.2H238.393C238.393 164.134 241.01 174.367 246.242 183.835L253.244 179.965ZM246.393 153.2C246.393 141.612 249.548 131.194 255.859 121.837L249.227 117.363C242.004 128.073 238.393 140.055 238.393 153.2H246.393ZM255.848 121.853C262.392 112.255 271.72 104.523 284.002 98.7163L280.583 91.4837C267.2 97.8105 256.693 106.412 249.238 117.347L255.848 121.853ZM284.056 98.6907C296.231 92.7136 310.77 89.65 327.793 89.65V81.65C309.816 81.65 294.021 84.8864 280.53 91.5093L284.056 98.6907ZM327.793 89.65C341.756 89.65 355.999 92.2385 370.54 97.4643L373.246 89.9357C357.92 84.4281 342.763 81.65 327.793 81.65V89.65ZM370.593 97.4827C385.137 102.483 397.665 109.27 408.228 117.811L413.258 111.589C401.888 102.397 388.515 95.1841 373.193 89.9172L370.593 97.4827ZM407.409 112.49L386.059 144.69L392.727 149.11L414.077 116.91L407.409 112.49ZM392.06 143.919C382.837 135.667 372.398 129.236 360.765 124.631L357.821 132.069C368.588 136.331 378.215 142.266 386.726 149.881L392.06 143.919ZM360.859 124.669C349.388 119.788 337.305 117.35 324.643 117.35V125.35C336.248 125.35 347.264 127.579 357.727 132.031L360.859 124.669ZM324.643 117.35C310.445 117.35 299.085 120.22 291.293 126.668L296.393 132.832C302.134 128.08 311.308 125.35 324.643 125.35V117.35ZM291.293 126.668C283.788 132.879 279.693 140.476 279.693 149.35H287.693C287.693 143.291 290.365 137.821 296.393 132.832L291.293 126.668ZM279.693 149.35C279.693 154.871 281.364 160.068 284.565 164.869L291.221 160.431C288.822 156.832 287.693 153.162 287.693 149.35H279.693ZM284.716 165.08C288.26 169.715 294.097 174.008 301.766 178.082L305.52 171.018C298.256 167.159 293.592 163.518 291.07 160.22L284.716 165.08ZM301.766 178.082C309.504 182.193 319.998 186.473 333.158 190.938L335.728 183.362C322.755 178.961 312.716 174.84 305.52 171.018L301.766 178.082ZM333.23 190.962C353.556 197.429 369.502 204.638 381.209 212.518L385.676 205.882C373.117 197.428 356.397 189.938 335.656 183.338L333.23 190.962ZM381.254 212.548C393.035 220.251 401.262 228.462 406.225 237.094L413.161 233.106C407.391 223.072 398.118 214.016 385.632 205.852L381.254 212.548ZM406.263 237.158C411.487 245.865 414.093 255.303 414.093 265.55H422.093C422.093 253.864 419.099 243.002 413.123 233.042L406.263 237.158ZM414.093 265.55C414.093 277.112 410.835 287.907 404.243 298.015L410.943 302.385C418.351 291.027 422.093 278.722 422.093 265.55H414.093ZM404.265 297.981C397.741 307.767 388.096 315.726 375.105 321.774L378.481 329.026C392.557 322.474 403.445 313.633 410.921 302.419L404.265 297.981ZM375.105 321.774C362.249 327.758 346.067 330.85 326.393 330.85V338.85C346.852 338.85 364.27 335.642 378.481 329.026L375.105 321.774ZM326.393 330.85C315.29 330.85 304.176 329.491 293.044 326.765L291.141 334.535C302.877 337.409 314.63 338.85 326.393 338.85V330.85ZM293.119 326.784C281.934 323.816 271.213 319.824 260.95 314.806L257.436 321.994C268.173 327.243 279.385 331.417 291.067 334.516L293.119 326.784ZM260.982 314.822C250.966 309.814 242.009 304.027 234.095 297.47L228.991 303.63C237.411 310.606 246.887 316.719 257.404 321.978L260.982 314.822Z" fill="#0047FF" mask="url(#path-1-outside-1_1044_4)"/>
<path d="M44.9 297.75L42.145 294.85L39.5728 297.294L41.6918 300.139L44.9 297.75ZM72.9 271.15L76.33 269.092L73.7627 264.813L70.145 268.25L72.9 271.15ZM90.4 289.35L88.1339 292.646L88.1574 292.662L88.1812 292.678L90.4 289.35ZM150.25 283.75L147.269 281.083L147.269 281.083L150.25 283.75ZM162.15 89.5V85.5H158.15V89.5H162.15ZM203.45 89.5H207.45V85.5H203.45V89.5ZM191.9 295.3L188.454 293.269L188.448 293.279L188.443 293.288L191.9 295.3ZM161.45 324.7L159.584 321.162L161.45 324.7ZM76.4 324.7L74.4846 328.212L74.5094 328.225L74.5344 328.238L76.4 324.7ZM100.9 122.75H96.9V126.75H100.9V122.75ZM100.9 89.5V85.5H96.9V89.5H100.9ZM187.7 89.5H191.7V85.5H187.7V89.5ZM187.7 122.75V126.75H191.7V122.75H187.7ZM47.655 300.65L75.655 274.05L70.145 268.25L42.145 294.85L47.655 300.65ZM69.47 273.208C73.9958 280.751 80.2473 287.224 88.1339 292.646L92.6661 286.054C85.6193 281.209 80.2042 275.549 76.33 269.092L69.47 273.208ZM88.1812 292.678C96.6092 298.297 106.383 301.05 117.35 301.05V293.05C107.783 293.05 99.5908 290.67 92.6188 286.022L88.1812 292.678ZM117.35 301.05C132.268 301.05 144.403 296.283 153.231 286.417L147.269 281.083C140.23 288.95 130.432 293.05 117.35 293.05V301.05ZM153.231 286.417C162.106 276.498 166.15 261.566 166.15 242.45H158.15C158.15 260.667 154.261 273.269 147.269 281.083L153.231 286.417ZM166.15 242.45V89.5H158.15V242.45H166.15ZM162.15 93.5H203.45V85.5H162.15V93.5ZM199.45 89.5V247.35H207.45V89.5H199.45ZM199.45 247.35C199.45 265.71 195.712 280.952 188.454 293.269L195.346 297.331C203.488 283.514 207.45 266.79 207.45 247.35H199.45ZM188.443 293.288C181.344 305.49 171.738 314.753 159.584 321.162L163.316 328.238C176.828 321.113 187.523 310.777 195.357 297.312L188.443 293.288ZM159.584 321.162C147.379 327.597 133.679 330.85 118.4 330.85V338.85C134.855 338.85 149.855 335.336 163.316 328.238L159.584 321.162ZM118.4 330.85C103.853 330.85 90.4975 327.611 78.2656 321.162L74.5344 328.238C87.9692 335.322 102.614 338.85 118.4 338.85V330.85ZM78.3154 321.188C65.9533 314.445 55.9065 305.833 48.1082 295.361L41.6918 300.139C50.2268 311.6 61.18 320.955 74.4846 328.212L78.3154 321.188ZM104.9 122.75V89.5H96.9V122.75H104.9ZM100.9 93.5H187.7V85.5H100.9V93.5ZM183.7 89.5V122.75H191.7V89.5H183.7ZM187.7 118.75H100.9V126.75H187.7V118.75ZM231.543 300.55L228.243 298.29L226.18 301.301L228.991 303.63L231.543 300.55ZM253.593 268.35L256.284 265.39L252.887 262.302L250.293 266.09L253.593 268.35ZM288.593 290.4L287.073 294.1L287.113 294.116L287.153 294.132L288.593 290.4ZM354.743 294.25L356.206 297.973L356.239 297.96L356.272 297.946L354.743 294.25ZM369.793 283.75L366.653 281.271L366.644 281.283L366.636 281.294L369.793 283.75ZM370.493 254.7L373.847 252.52L373.847 252.52L370.493 254.7ZM354.043 241.05L352.047 244.516L352.069 244.529L352.092 244.542L354.043 241.05ZM321.143 227.4L319.838 231.181L319.867 231.191L319.897 231.201L321.143 227.4ZM274.593 206.4L272.406 209.749L272.43 209.765L272.454 209.78L274.593 206.4ZM249.743 181.9L246.242 183.835L246.261 183.87L246.281 183.904L249.743 181.9ZM252.543 119.6L249.238 117.347L249.232 117.355L249.227 117.363L252.543 119.6ZM282.293 95.1L284.002 98.7163L284.029 98.7037L284.056 98.6907L282.293 95.1ZM371.893 93.7L370.54 97.4643L370.566 97.4737L370.593 97.4827L371.893 93.7ZM410.743 114.7L414.077 116.91L416.088 113.877L413.258 111.589L410.743 114.7ZM389.393 146.9L386.726 149.881L390.172 152.964L392.727 149.11L389.393 146.9ZM359.293 128.35L357.727 132.031L357.774 132.051L357.821 132.069L359.293 128.35ZM293.843 129.75L291.293 126.668L291.293 126.668L293.843 129.75ZM287.893 162.65L284.565 164.869L284.637 164.977L284.716 165.08L287.893 162.65ZM303.643 174.55L305.52 171.018L305.52 171.018L303.643 174.55ZM334.443 187.15L333.158 190.938L333.194 190.95L333.23 190.962L334.443 187.15ZM383.443 209.2L381.209 212.518L381.232 212.533L381.254 212.548L383.443 209.2ZM409.693 235.1L406.225 237.094L406.244 237.126L406.263 237.158L409.693 235.1ZM407.593 300.2L410.921 302.419L410.932 302.402L410.943 302.385L407.593 300.2ZM376.793 325.4L375.105 321.774L376.793 325.4ZM292.093 330.65L291.067 334.516L291.104 334.526L291.141 334.535L292.093 330.65ZM259.193 318.4L257.404 321.978L257.42 321.986L257.436 321.994L259.193 318.4ZM234.843 302.81L256.893 270.61L250.293 266.09L228.243 298.29L234.843 302.81ZM250.902 271.31C261.52 280.962 273.584 288.56 287.073 294.1L290.113 286.7C277.468 281.507 266.2 274.405 256.284 265.39L250.902 271.31ZM287.153 294.132C300.919 299.445 315.291 302.1 330.243 302.1V294.1C316.261 294.1 302.867 291.622 290.033 286.668L287.153 294.132ZM330.243 302.1C340.36 302.1 349.061 300.78 356.206 297.973L353.28 290.527C347.358 292.854 339.726 294.1 330.243 294.1V302.1ZM356.272 297.946C363.45 294.976 369.127 291.121 372.95 286.206L366.636 281.294C363.925 284.779 359.57 287.924 353.214 290.554L356.272 297.946ZM372.933 286.229C376.93 281.165 379.043 275.524 379.043 269.4H371.043C371.043 273.543 369.656 277.469 366.653 281.271L372.933 286.229ZM379.043 269.4C379.043 263.427 377.265 257.779 373.847 252.52L367.139 256.88C369.788 260.955 371.043 265.106 371.043 269.4H379.043ZM373.847 252.52C370.303 247.068 364.176 242.13 355.994 237.558L352.092 244.542C359.777 248.836 364.616 252.998 367.139 256.88L373.847 252.52ZM356.039 237.584C347.994 232.952 336.732 228.302 322.389 223.599L319.897 231.201C334.021 235.832 344.692 240.281 352.047 244.516L356.039 237.584ZM322.448 223.619C303.003 216.906 287.804 210.025 276.732 203.02L272.454 209.78C284.248 217.242 300.083 224.361 319.838 231.181L322.448 223.619ZM276.78 203.051C265.704 195.818 257.938 188.071 253.205 179.896L246.281 183.904C251.815 193.462 260.615 202.049 272.406 209.749L276.78 203.051ZM253.244 179.965C248.676 171.699 246.393 162.799 246.393 153.2H238.393C238.393 164.134 241.01 174.367 246.242 183.835L253.244 179.965ZM246.393 153.2C246.393 141.612 249.548 131.194 255.859 121.837L249.227 117.363C242.004 128.073 238.393 140.055 238.393 153.2H246.393ZM255.848 121.853C262.392 112.255 271.72 104.523 284.002 98.7163L280.583 91.4837C267.2 97.8105 256.693 106.412 249.238 117.347L255.848 121.853ZM284.056 98.6907C296.231 92.7136 310.77 89.65 327.793 89.65V81.65C309.816 81.65 294.021 84.8864 280.53 91.5093L284.056 98.6907ZM327.793 89.65C341.756 89.65 355.999 92.2385 370.54 97.4643L373.246 89.9357C357.92 84.4281 342.763 81.65 327.793 81.65V89.65ZM370.593 97.4827C385.137 102.483 397.665 109.27 408.228 117.811L413.258 111.589C401.888 102.397 388.515 95.1841 373.193 89.9172L370.593 97.4827ZM407.409 112.49L386.059 144.69L392.727 149.11L414.077 116.91L407.409 112.49ZM392.06 143.919C382.837 135.667 372.398 129.236 360.765 124.631L357.821 132.069C368.588 136.331 378.215 142.266 386.726 149.881L392.06 143.919ZM360.859 124.669C349.388 119.788 337.305 117.35 324.643 117.35V125.35C336.248 125.35 347.264 127.579 357.727 132.031L360.859 124.669ZM324.643 117.35C310.445 117.35 299.085 120.22 291.293 126.668L296.393 132.832C302.134 128.08 311.308 125.35 324.643 125.35V117.35ZM291.293 126.668C283.788 132.879 279.693 140.476 279.693 149.35H287.693C287.693 143.291 290.365 137.821 296.393 132.832L291.293 126.668ZM279.693 149.35C279.693 154.871 281.364 160.068 284.565 164.869L291.221 160.431C288.822 156.832 287.693 153.162 287.693 149.35H279.693ZM284.716 165.08C288.26 169.715 294.097 174.008 301.766 178.082L305.52 171.018C298.256 167.159 293.592 163.518 291.07 160.22L284.716 165.08ZM301.766 178.082C309.504 182.193 319.998 186.473 333.158 190.938L335.728 183.362C322.755 178.961 312.716 174.84 305.52 171.018L301.766 178.082ZM333.23 190.962C353.556 197.429 369.502 204.638 381.209 212.518L385.676 205.882C373.117 197.428 356.397 189.938 335.656 183.338L333.23 190.962ZM381.254 212.548C393.035 220.251 401.262 228.462 406.225 237.094L413.161 233.106C407.391 223.072 398.118 214.016 385.632 205.852L381.254 212.548ZM406.263 237.158C411.487 245.865 414.093 255.303 414.093 265.55H422.093C422.093 253.864 419.099 243.002 413.123 233.042L406.263 237.158ZM414.093 265.55C414.093 277.112 410.835 287.907 404.243 298.015L410.943 302.385C418.351 291.027 422.093 278.722 422.093 265.55H414.093ZM404.265 297.981C397.741 307.767 388.096 315.726 375.105 321.774L378.481 329.026C392.557 322.474 403.445 313.633 410.921 302.419L404.265 297.981ZM375.105 321.774C362.249 327.758 346.067 330.85 326.393 330.85V338.85C346.852 338.85 364.27 335.642 378.481 329.026L375.105 321.774ZM326.393 330.85C315.29 330.85 304.176 329.491 293.044 326.765L291.141 334.535C302.877 337.409 314.63 338.85 326.393 338.85V330.85ZM293.119 326.784C281.934 323.816 271.213 319.824 260.95 314.806L257.436 321.994C268.173 327.243 279.385 331.417 291.067 334.516L293.119 326.784ZM260.982 314.822C250.966 309.814 242.009 304.027 234.095 297.47L228.991 303.63C237.411 310.606 246.887 316.719 257.404 321.978L260.982 314.822Z" fill="url(#paint0_linear_1044_4)" mask="url(#path-1-outside-1_1044_4)"/>
<path d="M11.9 336.75L39.9 310.15C44.1 317.15 49.9333 323.217 57.4 328.35C65.1 333.483 74.0833 336.05 84.35 336.05C98.35 336.05 109.317 331.617 117.25 322.75C125.183 313.883 129.15 300.117 129.15 281.45V128.5H170.45V286.35C170.45 305.25 166.6 321.233 158.9 334.3C151.433 347.133 141.283 356.933 128.45 363.7C115.617 370.467 101.267 373.85 85.4 373.85C70.2333 373.85 56.2333 370.467 43.4 363.7C30.5667 356.7 20.0667 347.717 11.9 336.75ZM67.9 161.75V128.5H154.7V161.75H67.9ZM198.543 339.55L220.593 307.35C230.86 316.683 242.526 324.033 255.593 329.4C268.893 334.533 282.776 337.1 297.243 337.1C307.043 337.1 315.21 335.817 321.743 333.25C328.51 330.45 333.526 326.95 336.793 322.75C340.293 318.317 342.043 313.533 342.043 308.4C342.043 303.267 340.526 298.367 337.493 293.7C334.46 289.033 328.976 284.483 321.043 280.05C313.343 275.617 302.376 271.067 288.143 266.4C268.543 259.633 253.026 252.633 241.593 245.4C230.16 237.933 221.876 229.767 216.743 220.9C211.843 212.033 209.393 202.467 209.393 192.2C209.393 179.833 212.776 168.633 219.543 158.6C226.543 148.333 236.46 140.167 249.293 134.1C262.126 127.8 277.293 124.65 294.793 124.65C309.26 124.65 323.96 127.333 338.893 132.7C353.826 137.833 366.776 144.833 377.743 153.7L356.393 185.9C347.526 177.967 337.493 171.783 326.293 167.35C315.326 162.683 303.776 160.35 291.643 160.35C277.876 160.35 267.61 163.15 260.843 168.75C254.076 174.35 250.693 180.883 250.693 188.35C250.693 193.017 252.093 197.45 254.893 201.65C257.926 205.617 263.176 209.583 270.643 213.55C278.11 217.517 288.376 221.717 301.443 226.15C321.976 232.683 338.31 240.033 350.443 248.2C362.576 256.133 371.326 264.767 376.693 274.1C382.293 283.433 385.093 293.583 385.093 304.55C385.093 316.917 381.593 328.467 374.593 339.2C367.593 349.7 357.326 358.1 343.793 364.4C330.26 370.7 313.46 373.85 293.393 373.85C281.96 373.85 270.526 372.45 259.093 369.65C247.66 366.617 236.693 362.533 226.193 357.4C215.926 352.267 206.71 346.317 198.543 339.55Z" fill="white"/>
<path d="M11.9 336.75L39.9 310.15C44.1 317.15 49.9333 323.217 57.4 328.35C65.1 333.483 74.0833 336.05 84.35 336.05C98.35 336.05 109.317 331.617 117.25 322.75C125.183 313.883 129.15 300.117 129.15 281.45V128.5H170.45V286.35C170.45 305.25 166.6 321.233 158.9 334.3C151.433 347.133 141.283 356.933 128.45 363.7C115.617 370.467 101.267 373.85 85.4 373.85C70.2333 373.85 56.2333 370.467 43.4 363.7C30.5667 356.7 20.0667 347.717 11.9 336.75ZM67.9 161.75V128.5H154.7V161.75H67.9ZM198.543 339.55L220.593 307.35C230.86 316.683 242.526 324.033 255.593 329.4C268.893 334.533 282.776 337.1 297.243 337.1C307.043 337.1 315.21 335.817 321.743 333.25C328.51 330.45 333.526 326.95 336.793 322.75C340.293 318.317 342.043 313.533 342.043 308.4C342.043 303.267 340.526 298.367 337.493 293.7C334.46 289.033 328.976 284.483 321.043 280.05C313.343 275.617 302.376 271.067 288.143 266.4C268.543 259.633 253.026 252.633 241.593 245.4C230.16 237.933 221.876 229.767 216.743 220.9C211.843 212.033 209.393 202.467 209.393 192.2C209.393 179.833 212.776 168.633 219.543 158.6C226.543 148.333 236.46 140.167 249.293 134.1C262.126 127.8 277.293 124.65 294.793 124.65C309.26 124.65 323.96 127.333 338.893 132.7C353.826 137.833 366.776 144.833 377.743 153.7L356.393 185.9C347.526 177.967 337.493 171.783 326.293 167.35C315.326 162.683 303.776 160.35 291.643 160.35C277.876 160.35 267.61 163.15 260.843 168.75C254.076 174.35 250.693 180.883 250.693 188.35C250.693 193.017 252.093 197.45 254.893 201.65C257.926 205.617 263.176 209.583 270.643 213.55C278.11 217.517 288.376 221.717 301.443 226.15C321.976 232.683 338.31 240.033 350.443 248.2C362.576 256.133 371.326 264.767 376.693 274.1C382.293 283.433 385.093 293.583 385.093 304.55C385.093 316.917 381.593 328.467 374.593 339.2C367.593 349.7 357.326 358.1 343.793 364.4C330.26 370.7 313.46 373.85 293.393 373.85C281.96 373.85 270.526 372.45 259.093 369.65C247.66 366.617 236.693 362.533 226.193 357.4C215.926 352.267 206.71 346.317 198.543 339.55Z" fill="url(#paint1_linear_1044_4)" fill-opacity="0.4"/>
<defs>
<linearGradient id="paint0_linear_1044_4" x1="234.5" y1="0" x2="234.5" y2="420" gradientUnits="userSpaceOnUse">
<stop stop-opacity="0"/>
<stop offset="1" stop-color="#42FF00"/>
</linearGradient>
<linearGradient id="paint1_linear_1044_4" x1="211" y1="223.5" x2="208.603" y2="408.95" gradientUnits="userSpaceOnUse">
<stop stop-opacity="0"/>
<stop offset="1" stop-color="#00FF1A"/>
</linearGradient>
</defs>
</svg>
