<svg width="240" height="240" viewBox="0 0 240 240" fill="none" xmlns="http://www.w3.org/2000/svg">
<path fill-rule="evenodd" clip-rule="evenodd" d="M120 240C186.274 240 240 186.274 240 120C240 53.7258 186.274 0 120 0C53.7258 0 0 53.7258 0 120C0 186.274 53.7258 240 120 240ZM110.7 176.444V195H185.1C190.215 195 194.594 193.183 198.236 189.549C201.879 185.916 203.7 181.547 203.7 176.444V165.079C206.645 163.688 208.931 161.6 210.559 158.817C212.186 156.033 213 153.095 213 150.003V128.664C213 125.571 212.186 122.633 210.559 119.85C208.931 117.067 206.645 114.979 203.7 113.588L203.003 101.526C201.607 91.0116 198.508 81.2699 193.702 72.3014C188.898 63.3329 182.775 55.5627 175.335 48.991C167.895 42.4192 159.448 37.2778 149.993 33.5667C140.537 29.8555 130.54 28 120 28C109.46 28 99.4238 29.8555 89.8913 33.5667C80.3587 37.2778 71.9113 42.4579 64.5487 49.1069C57.1863 55.756 51.0638 63.5648 46.1813 72.5333C41.2987 81.5018 38.2375 91.2435 36.9975 101.758L36.3 114.051C33.355 115.752 31.0688 118.033 29.4412 120.894C27.8137 123.754 27 126.808 27 130.056V148.611C27 153.714 28.8212 158.082 32.4637 161.716C36.1062 165.35 40.485 167.167 45.6 167.167H54.9V110.572C54.9 92.4805 61.2163 77.1335 73.8488 64.5312C86.4813 51.929 101.865 45.6278 120 45.6278C138.135 45.6278 153.519 51.929 166.151 64.5312C178.784 77.1335 185.1 92.4805 185.1 110.572V176.444H110.7ZM85.4738 127.388C87.2563 129.166 89.465 130.056 92.1 130.056C94.735 130.056 96.9438 129.166 98.7262 127.388C100.509 125.61 101.4 123.406 101.4 120.778C101.4 118.149 100.509 115.946 98.7262 114.167C96.9438 112.389 94.735 111.5 92.1 111.5C89.465 111.5 87.2563 112.389 85.4738 114.167C83.6912 115.946 82.8 118.149 82.8 120.778C82.8 123.406 83.6912 125.61 85.4738 127.388ZM141.274 127.388C143.056 129.166 145.265 130.056 147.9 130.056C150.535 130.056 152.744 129.166 154.526 127.388C156.309 125.61 157.2 123.406 157.2 120.778C157.2 118.149 156.309 115.946 154.526 114.167C152.744 112.389 150.535 111.5 147.9 111.5C145.265 111.5 143.056 112.389 141.274 114.167C139.491 115.946 138.6 118.149 138.6 120.778C138.6 123.406 139.491 125.61 141.274 127.388ZM79.3125 73.4611C68.3075 85.213 63.3475 99.2842 64.4325 115.675C76.0575 110.881 85.8613 103.653 93.8438 93.9882C101.826 84.3239 107.057 73.3065 109.538 60.9361C115.893 73.6157 124.999 83.6667 136.856 91.0889C148.714 98.5111 161.695 102.3 175.8 102.454C173.63 88.8467 167.314 77.6747 156.851 68.9382C146.389 60.2016 134.26 55.8333 120.465 55.8333C104.035 55.8333 90.3175 61.7092 79.3125 73.4611Z" fill="#00FF94"/>
</svg>
